<svg width="86" height="19" viewBox="0 0 86 19" fill="none" xmlns="http://www.w3.org/2000/svg">
<path d="M0.824 11.592V0.456H3.896V11.4C3.896 13.92 5.264 15.312 7.76 15.312C10.256 15.312 11.648 13.896 11.648 11.4V0.456H14.72V11.592C14.72 15.696 12.032 18.288 7.76 18.288C3.512 18.288 0.824 15.72 0.824 11.592ZM20.9947 18H18.0667V6.144H20.7787L21.0187 7.68C21.7627 6.48 23.2027 5.784 24.8107 5.784C27.7867 5.784 29.3227 7.632 29.3227 10.704V18H26.3947V11.4C26.3947 9.408 25.4107 8.448 23.8987 8.448C22.0987 8.448 20.9947 9.696 20.9947 11.616V18ZM33.6635 3.768C32.6555 3.768 31.8635 2.976 31.8635 1.992C31.8635 1.008 32.6555 0.24 33.6635 0.24C34.6235 0.24 35.4155 1.008 35.4155 1.992C35.4155 2.976 34.6235 3.768 33.6635 3.768ZM32.1995 18V6.144H35.1275V18H32.1995ZM46.4326 18V8.592H41.5846V18H38.6806V8.592H36.9766V6.144H38.6806V4.704C38.6806 1.488 40.3606 0.144 42.7606 0.144C43.2166 0.144 43.7686 0.167999 44.2726 0.263999V2.76H43.2406C41.9206 2.76 41.5846 3.528 41.5846 4.704V6.144H49.3606V18H46.4326ZM47.8966 3.72C46.9126 3.72 46.1446 2.952 46.1446 1.968C46.1446 1.008 46.9126 0.24 47.8966 0.24C48.8566 0.24 49.6246 1.008 49.6246 1.968C49.6246 2.952 48.8566 3.72 47.8966 3.72ZM55.3072 18H52.3792V6.144H55.0912L55.3312 7.68C56.0752 6.48 57.5152 5.784 59.1232 5.784C62.0992 5.784 63.6352 7.632 63.6352 10.704V18H60.7072V11.4C60.7072 9.408 59.7232 8.448 58.2112 8.448C56.4112 8.448 55.3072 9.696 55.3072 11.616V18ZM71.384 18.312C67.952 18.312 65.816 15.792 65.816 12.12C65.816 8.424 67.976 5.784 71.552 5.784C73.208 5.784 74.672 6.48 75.416 7.656V0.144H78.32V18H75.632L75.44 16.152C74.72 17.52 73.184 18.312 71.384 18.312ZM72.032 15.624C74.072 15.624 75.392 14.16 75.392 12.024C75.392 9.888 74.072 8.4 72.032 8.4C69.992 8.4 68.744 9.912 68.744 12.024C68.744 14.136 69.992 15.624 72.032 15.624ZM83.3394 18.288C82.2834 18.288 81.3954 17.424 81.3954 16.392C81.3954 15.336 82.2834 14.472 83.3394 14.472C84.3954 14.472 85.2834 15.336 85.2834 16.392C85.2834 17.424 84.3954 18.288 83.3394 18.288Z" fill="#732091"/>
</svg>
