<svg width="22" height="22" viewBox="0 0 22 22" fill="none" xmlns="http://www.w3.org/2000/svg">
<path d="M12.8333 5.95832V4.12499H9.16665V5.95832H12.8333ZM3.66665 7.79166V17.875H18.3333V7.79166H3.66665ZM18.3333 5.95832C19.3508 5.95832 20.1666 6.77416 20.1666 7.79166V17.875C20.1666 18.8925 19.3508 19.7083 18.3333 19.7083H3.66665C2.64915 19.7083 1.83331 18.8925 1.83331 17.875L1.84248 7.79166C1.84248 6.77416 2.64915 5.95832 3.66665 5.95832H7.33331V4.12499C7.33331 3.10749 8.14915 2.29166 9.16665 2.29166H12.8333C13.8508 2.29166 14.6666 3.10749 14.6666 4.12499V5.95832H18.3333Z" fill="black"/>
</svg>
